<?xml version="1.0" encoding="utf-8"?>
<!-- Generator: Adobe Illustrator 14.0.0, SVG Export Plug-In . SVG Version: 6.00 Build 43363)  -->
<!DOCTYPE svg PUBLIC "-//W3C//DTD SVG 1.1//EN" "http://www.w3.org/Graphics/SVG/1.1/DTD/svg11.dtd">
<svg version="1.1" xmlns="http://www.w3.org/2000/svg" xmlns:xlink="http://www.w3.org/1999/xlink" x="0px" y="0px" width="960px"
	 height="251px" viewBox="0 0 960 251" enable-background="new 0 0 960 251" xml:space="preserve">
<g id="REMOLMAX">
	<path d="M94.195,48.135c8.927-1.16,20.222-1.167,34.917-1.167c16.818,0,28.438,1.845,33.833,7.5
		c4.54,4.785,5.388,11.116,0.5,20.542c-6.321,12.181-17.167,21.308-27.167,24.208l-0.25,0.5c12.5,5.333,10.583,10.833,7.25,18.75
		c-2.817,6.691-8.473,13.888-10.167,19.417c-0.683,2.229,3.25,2.333,1.167,6.115h-32c-0.13-2.899,9.452-16.408,12.668-28.588
		c3.075-11.6-10.858-8.944-20.001-8.944l-4.761,0.846L71.156,144H41.929L94.195,48.135z M99.961,88.464l8.65-0.496
		c11.103,0,21.07-3.833,24.833-11.083c3.76-7.25-1.869-8.083-11.667-8.083c-5.552,0-8.879,0.043-10.5,0.333L99.961,88.464z"/>
	<path d="M234.626,104.56H195.11l-9.474,17.98h44.25L218.58,144h-73.804l51.493-97.731h71.519l-11.306,21.46h-41.965l-8.251,15.66
		h39.516L234.626,104.56z"/>
	<path d="M335.639,108.91c5.206-11.02,11.726-24.07,19.493-39.296h-0.417c-9.494,12.905-20.849,27.551-29.373,38.281l-26.675,34.075
		h-19.552l9.619-34.075c2.83-10.439,7.453-24.94,12.04-38.281h-0.277c-7.579,13.775-15.396,28.276-21.434,39.296L259.636,144
		h-23.018l55.686-97.731H326l-7.367,26.39c-2.836,10.73-6.726,23.78-10.849,35.67h0.416c8.699-11.89,18.783-25.665,26.807-35.96
		l20.389-26.1h32.863L343.112,144h-24.267L335.639,108.91z"/>
	<path d="M649.371,108.91c5.205-11.02,11.725-24.07,19.492-39.296h-0.416c-9.494,12.905-20.85,27.551-29.373,38.281l-26.675,34.075
		h-19.552l9.619-34.075c2.83-10.439,7.453-24.94,12.04-38.281h-0.277c-7.579,13.775-15.396,28.276-21.435,39.296L573.368,144H550.35
		l55.686-97.731h33.696l-7.367,26.39c-2.836,10.73-6.726,23.78-10.848,35.67h0.416c8.699-11.89,18.782-25.665,26.807-35.96
		l20.389-26.1h32.863L656.843,144h-24.266L649.371,108.91z"/>
	<path d="M403.744,145.596c-32.295,0-39.004-22.766-25.834-49.881c13.808-28.421,44.578-51.042,76.563-51.042
		c33.53,0,39.188,23.346,26.505,49.446c-15.283,31.465-45.095,51.476-77.08,51.476H403.744z M415.207,124.86
		c13.442,0,27.243-12.18,35.834-29.871c8.17-16.82,6.336-29.581-7.26-29.581c-13.443,0-27.834,12.761-36.073,29.726
		c-8.678,17.546-6.254,29.726,7.189,29.726H415.207z"/>
	<path d="M515.188,46.269h29.554l-38.683,75.836h42.291L537.181,144h-71.845L515.188,46.269z"/>
	<path d="M711.806,121.379L695.202,144h-29.254l76.728-97.731h37.544L765.598,144h-30.505l3.933-22.621H711.806z M744.203,102.095
		l3.428-17.545c1.027-5.51,2.757-13.485,3.918-19.285h-0.313c-4.293,5.8-9.617,13.775-13.775,19.285l-12.813,17.545H744.203z"/>
	<path d="M832.821,144l0.121-15.95c-0.085-6.235,0.049-11.311,0.152-16.965h-0.328c-4.837,5.654-10.032,10.729-15.743,16.82
		L801.47,144h-33.473l56.212-49.445l-5.282-48.286h33.8l-0.392,15.515c-0.184,5.8-0.503,10.585-0.932,16.24h0.326
		c5.697-6.38,9.715-10.73,14.735-16.095l14.673-15.66h33.637l-54.186,47.705L866.948,144H832.821z"/>
</g>
<g id="RENTA_Y_SERVICIO_DE_REMOLQUES">
	<g>
		<path d="M267.588,199.14c1.905-0.286,4.581-0.479,6.972-0.479c3.771,0,6.004,0.575,7.204,1.787
			c0.955,0.926,1.156,2.395,0.455,4.086c-1.167,2.809-4.259,4.691-7.416,5.458l-0.04,0.096c1.831,0.574,2.452,2.106,2.214,4.34
			c-0.353,3.001-0.565,5.075-0.381,5.905h-3.649c-0.182-0.639-0.035-2.457,0.348-5.139c0.42-2.968-0.616-4.085-3.78-4.181h-3.324
			l-3.865,9.319h-3.527L267.588,199.14z M267.064,208.907h3.608c3.771,0,6.836-1.628,7.856-4.085c1.154-2.778-0.898-3.99-4.628-3.99
			c-1.702,0-2.932,0.128-3.592,0.255L267.064,208.907z"/>
		<path d="M299.708,210.247h-10.582l-3.217,7.757h11.839l-0.965,2.329h-15.406l8.923-21.512h14.798l-0.965,2.33h-11.23l-2.821,6.798
			h10.582L299.708,210.247z"/>
		<path d="M302.17,220.333l8.923-21.512h3.893l4.203,10.884c0.939,2.521,1.621,4.787,1.964,6.99l0.135-0.033
			c0.869-2.872,1.872-5.489,3.249-8.808l3.748-9.033h3.324l-8.923,21.512h-3.567l-4.15-10.916c-0.91-2.394-1.718-4.851-2.087-7.181
			l-0.135,0.032c-0.922,2.713-1.956,5.298-3.44,8.873l-3.811,9.191H302.17z"/>
		<path d="M342.785,201.183h-8.312l0.981-2.361h20.231l-0.981,2.361h-8.352l-7.942,19.15h-3.568L342.785,201.183z"/>
		<path d="M357.835,213.566l-5.646,6.767h-3.648l18.208-21.512h4.257l0.402,21.512h-3.771l-0.111-6.767H357.835z M367.694,211.396
			l-0.146-6.192c0.014-1.404,0.137-2.681,0.248-3.925h-0.121c-0.881,1.244-1.883,2.585-2.952,3.894l-5.259,6.224H367.694z"/>
		<path d="M391.713,220.333l3.786-9.129l-3.54-12.383h4.055l1.39,5.937c0.336,1.627,0.646,2.937,0.874,4.437h0.081
			c1.313-1.404,2.868-2.81,4.599-4.437l6.394-5.937h3.974l-14.247,12.352l-3.799,9.16H391.713z"/>
		<path d="M418.732,216.95c1.262,0.766,3.283,1.372,5.714,1.372c3.608,0,6.323-1.468,7.226-3.639
			c0.834-2.01-0.136-3.191-3.374-4.277c-3.958-1.212-5.947-3.063-4.704-6.063c1.391-3.352,5.951-5.841,11.261-5.841
			c2.757,0,4.614,0.511,5.579,1.021l-1.926,2.298c-0.683-0.415-2.253-1.021-4.726-1.021c-3.73,0-5.879,1.755-6.487,3.223
			c-0.821,1.979,0.431,2.969,3.726,4.117c4.024,1.437,5.623,3.16,4.312,6.32c-1.365,3.287-5.652,6.191-12.099,6.191
			c-2.635,0-5.248-0.639-6.389-1.404L418.732,216.95z"/>
		<path d="M456.86,210.247h-10.582l-3.217,7.757H454.9l-0.965,2.329h-15.406l8.923-21.512h14.798l-0.965,2.33h-11.23l-2.822,6.798
			h10.582L456.86,210.247z"/>
		<path d="M468.111,199.14c1.905-0.286,4.581-0.479,6.972-0.479c3.771,0,6.004,0.575,7.204,1.787
			c0.954,0.926,1.155,2.395,0.454,4.086c-1.166,2.809-4.258,4.691-7.415,5.458l-0.04,0.096c1.831,0.574,2.452,2.106,2.214,4.34
			c-0.353,3.001-0.565,5.075-0.381,5.905h-3.649c-0.182-0.639-0.035-2.457,0.346-5.139c0.421-2.968-0.615-4.085-3.779-4.181h-3.324
			l-3.865,9.319h-3.527L468.111,199.14z M467.588,208.907h3.608c3.771,0,6.838-1.628,7.856-4.085c1.154-2.778-0.898-3.99-4.628-3.99
			c-1.702,0-2.932,0.128-3.592,0.255L467.588,208.907z"/>
		<path d="M487.939,220.333l-0.038-21.512h3.852l-0.137,10.596c-0.071,2.904-0.152,5.555-0.417,8.043h0.081
			c1.806-2.488,4.023-5.202,6.443-8.011l9.029-10.628h3.771l-18.691,21.512H487.939z"/>
		<path d="M517.817,198.821l-8.921,21.512h-3.566l8.92-21.512H517.817z"/>
		<path d="M535.212,219.631c-1.468,0.511-4.316,1.021-7.641,1.021c-7.703,0-11.869-3.83-8.94-10.884
			c2.789-6.734,10.466-11.267,18.94-11.267c3.365,0,5.318,0.574,6.105,0.926l-1.847,2.298c-1.083-0.511-2.835-0.894-5.104-0.894
			c-6.406,0-11.997,3.224-14.33,8.841c-2.184,5.267,0.277,8.617,6.886,8.617c2.189,0,4.526-0.351,6.169-0.894L535.212,219.631z"/>
		<path d="M552.636,198.821l-8.92,21.512h-3.568l8.921-21.512H552.636z"/>
		<path d="M561.204,220.684c-7.258,0-10.459-4.404-7.754-10.915c2.832-6.83,10.039-11.299,17.336-11.299
			c7.501,0,10.455,4.501,7.806,10.884c-3.058,7.373-10.415,11.33-17.347,11.33H561.204z M562.343,218.418
			c5.596,0,10.442-4.054,12.469-8.937c1.771-4.277,0.788-8.745-5.091-8.745s-10.585,4.309-12.518,8.969
			c-1.879,4.531-0.454,8.713,5.101,8.713H562.343z"/>
		<path d="M597.593,199.108c2.297-0.255,4.929-0.447,7.727-0.447c5.067,0,8.295,0.926,9.954,2.682
			c1.747,1.755,2.133,4.244,0.689,7.724c-1.454,3.511-4.068,6.384-7.399,8.362c-3.43,2.011-8.097,3.096-13.407,3.096
			c-2.555,0-4.596-0.063-6.342-0.255L597.593,199.108z M593.257,218.163c0.837,0.127,2.135,0.127,3.513,0.127
			c7.53,0.032,13.017-3.318,15.425-9.128c2.145-5.075-0.166-8.298-7.626-8.298c-1.825,0-3.253,0.127-4.253,0.287L593.257,218.163z"
			/>
		<path d="M634.927,210.247h-10.582l-3.215,7.757h11.839l-0.968,2.329h-15.406l8.921-21.512h14.798l-0.962,2.33h-11.23l-2.822,6.798
			h10.582L634.927,210.247z"/>
		<path d="M655.586,199.14c1.901-0.286,4.574-0.479,6.966-0.479c3.771,0,6.006,0.575,7.204,1.787
			c0.957,0.926,1.159,2.395,0.455,4.086c-1.166,2.809-4.259,4.691-7.41,5.458l-0.043,0.096c1.833,0.574,2.45,2.106,2.212,4.34
			c-0.349,3.001-0.56,5.075-0.379,5.905h-3.648c-0.184-0.639-0.034-2.457,0.349-5.139c0.42-2.968-0.616-4.085-3.781-4.181h-3.324
			l-3.866,9.319h-3.527L655.586,199.14z M655.057,208.907h3.608c3.771,0,6.84-1.628,7.859-4.085c1.153-2.778-0.899-3.99-4.63-3.99
			c-1.701,0-2.93,0.128-3.591,0.255L655.057,208.907z"/>
		<path d="M687.703,210.247h-10.582l-3.214,7.757h11.839l-0.967,2.329h-15.406l8.92-21.512h14.798l-0.962,2.33h-11.23l-2.822,6.798
			h10.582L687.703,210.247z"/>
		<path d="M717.114,210.886c1.027-2.968,2.304-6.639,3.406-9.287h-0.081c-2.008,2.488-4.24,5.233-6.834,8.17l-9.159,10.437h-2.676
			l-0.209-10.244c-0.039-3.032,0.062-5.811,0.351-8.362h-0.081c-1.194,2.68-2.896,6.287-4.473,9.511l-4.558,9.224h-3.365
			l10.826-21.512h4.5l0.348,10.404c0.036,2.65-0.064,5.043-0.262,7.277h0.081c1.629-2.17,3.598-4.563,5.938-7.277l9.181-10.404h4.5
			l-7.217,21.512h-3.488L717.114,210.886z"/>
		<path d="M734.083,220.684c-7.258,0-10.459-4.404-7.754-10.915c2.832-6.83,10.039-11.299,17.336-11.299
			c7.501,0,10.455,4.501,7.806,10.884c-3.058,7.373-10.415,11.33-17.347,11.33H734.083z M735.222,218.418
			c5.596,0,10.442-4.054,12.469-8.937c1.771-4.277,0.788-8.745-5.091-8.745s-10.585,4.309-12.518,8.969
			c-1.879,4.531-0.454,8.713,5.101,8.713H735.222z"/>
		<path d="M761.185,198.821h3.567l-7.953,19.183h11.677l-0.967,2.329h-15.244L761.185,198.821z"/>
		<path d="M793.491,223.461c-3.387-0.734-6.624-1.627-9.439-2.458c-0.541-0.159-1.004-0.319-1.529-0.319
			c-6.45-0.191-10.402-3.957-7.528-10.883c2.858-6.894,10.015-11.331,17.394-11.331c7.46,0,10.404,4.532,7.765,10.884
			c-2.288,5.521-6.988,9.032-12.059,10.31l-0.053,0.128c2.492,0.542,5.24,1.053,7.416,1.372L793.491,223.461z M783.904,218.418
			c5.596,0,10.442-4.054,12.469-8.937c1.786-4.309,0.788-8.745-5.009-8.745c-5.961,0-10.68,4.34-12.614,9
			c-1.89,4.564-0.439,8.682,5.115,8.682H783.904z"/>
		<path d="M813.434,198.821l-5.293,12.767c-1.985,4.788-0.118,6.83,3.53,6.83c4.014,0,7.526-2.106,9.484-6.83l5.293-12.767h3.567
			l-5.213,12.575c-2.74,6.607-8.271,9.287-14.191,9.287c-5.596,0-8.781-2.488-5.998-9.191l5.253-12.671H813.434z"/>
		<path d="M846.314,210.247h-10.582l-3.215,7.757h11.839l-0.968,2.329h-15.406l8.921-21.512h14.798l-0.962,2.33h-11.23l-2.822,6.798
			h10.582L846.314,210.247z"/>
		<path d="M849.732,216.95c1.266,0.766,3.284,1.372,5.717,1.372c3.608,0,6.323-1.468,7.226-3.639
			c0.835-2.01-0.135-3.191-3.376-4.277c-3.956-1.212-5.946-3.063-4.697-6.063c1.391-3.352,5.945-5.841,11.256-5.841
			c2.758,0,4.615,0.511,5.58,1.021l-1.926,2.298c-0.681-0.415-2.255-1.021-4.728-1.021c-3.73,0-5.873,1.755-6.487,3.223
			c-0.82,1.979,0.431,2.969,3.728,4.117c4.022,1.437,5.62,3.16,4.312,6.32c-1.366,3.287-5.653,6.191-12.1,6.191
			c-2.635,0-5.246-0.639-6.389-1.404L849.732,216.95z"/>
	</g>
	<path fill="#ED1B24" d="M240.695,184.135c0,0-3.326,23.75-34.413,23.75c-19.837,0.5-29.837-23.75-29.837-23.75"/>
	<path fill="#ED1B24" d="M156.695,184.135c0,0-7.25,23.758-32.75,23.758s-31.75-23.758-31.75-23.758h-64.5l14.234-31l848.266-0.25
		l-13,30.75"/>
</g>
</svg>
