<?xml version="1.0" encoding="utf-8"?>
<!-- Generator: Adobe Illustrator 18.1.1, SVG Export Plug-In . SVG Version: 6.00 Build 0)  -->
<svg version="1.1" id="Capa_1" xmlns="http://www.w3.org/2000/svg" xmlns:xlink="http://www.w3.org/1999/xlink" x="0px" y="0px"
	 viewBox="0 0 888.8 850.4" enable-background="new 0 0 888.8 850.4" xml:space="preserve">
<path fill="#FFFFFF" d="M762.7,850.4c-213.6,0-427.7,0-641.3,0c-4.1-1.2-8.1-2-11.8-3.2c-52-15.8-82-51.6-93-104
	c-1.6-8.5-2.8-16.7-4.1-25.2c0-190.9,0-381.4,0-572.3c0.4-0.8,0.8-1.6,0.8-2c4.1-15,6.5-30.1,12.2-44.3c17.5-43.9,47.9-73.5,95-84.5
	c6.1-1.2,12.6-2.4,19.1-3.7c166.5,0,333.5,0,500,0c0,0.8,0,1.2,0,2c0,66.6,0,132.8,0,199.4c0,1.2,0,2.4,0.4,4.5
	c80.8,0,161.7,0,243.7,0c0,11.8,0,23.6,0,34.9c0,145,0,290.4,0,435.4c0,4.9,1.2,9.3,2,14.2c0,11.8,0,23.6,0,34.9
	c-0.4,1.2-0.8,2.4-0.8,3.7c-2.4,22.7-9.7,44.3-24.4,62.1c-17.9,22.7-41.4,37.4-70.3,43.5C780.5,847.1,771.6,848.8,762.7,850.4z
	 M68.9,273.6c0,1.6,0,3.2,0,4.5c0,141.8,0,283.5,0,425.7c0,19.1,2.8,38.2,12.6,54.8c13.4,22.3,32.9,35.3,59.7,35.3
	c110.1,0,220.1,0,329.8,0c62.5,0,125.1-0.4,187.6-0.4c28.8,0,57.7,0.4,86.9,0.4c14.6,0,28.8-2.4,42.6-7.7c24-9.7,34.9-28,38.2-52.4
	c0.8-6.9,1.2-13.8,1.6-21.1c-3.2,0-5.7,0-7.7,0c-73.1,0-146.6,0-219.7,0c-4.5,0-8.9,0-13.4-0.8c-47.9-7.7-80.4-45.5-80.4-94.2
	c0-46.3,0-93,0-139.3c0-4.1,0-7.7,0.4-11.8c2.8-48.3,43.5-86.9,91.8-86.9c73.5,0,147,0,220.1,0c2,0,4.1,0,6.5,0c0-35.7,0-70.7,0-106
	C573.4,273.6,321.6,273.6,68.9,273.6z M69.3,216.4c171,0,341.6,0,512.6,0c0-49.6,0-98.7,0-148.2c-1.6,0-3.2-0.4-4.5-0.4
	c-141.3,0-283.1,0-424.4,0c-20.7,0-39.8,5.3-54.4,20.3c-18.7,19.1-27.2,42.6-28.8,68.2c-1.2,18.3-0.4,36.6-0.4,54.4
	C68.9,212.7,68.9,214.3,69.3,216.4z M824.4,436.1c-2.4,0-4.5,0-6.1,0c-72.3,0-144.6,0-216.9,0c-21.9,0-37.8,15.4-37.8,37.4
	c0,48.3,0,96.7,0,144.6c0,21.9,15.8,37.4,37.4,37.4c24.8,0,49.6,0,74.3,0c40.2,0,80.4,0,121,0c9.3,0,18.3,0,28,0
	C824.4,582.3,824.4,509.6,824.4,436.1z"/>
<path fill="#FFFFFF" d="M793.9,538.9c0.8,52-39.8,92.6-88.9,95c-44.7,2-92.6-32.1-95.4-88.1c-2.8-50,34.9-94.2,88.1-96.7
	C748.5,446.7,791.9,486.1,793.9,538.9z M737.1,540.9c0-19.5-16.7-35.7-35.7-35.3c-19.5,0.4-35.3,16.2-35.3,35.3
	c0,19.5,16.2,35.7,35.7,35.7C720.8,576.6,737.1,560.4,737.1,540.9z"/>
</svg>
