<?xml version="1.0" encoding="utf-8"?>
<!-- Generator: Adobe Illustrator 14.0.0, SVG Export Plug-In . SVG Version: 6.00 Build 43363)  -->
<!DOCTYPE svg PUBLIC "-//W3C//DTD SVG 1.1//EN" "http://www.w3.org/Graphics/SVG/1.1/DTD/svg11.dtd">
<svg version="1.1" id="Capa_1" xmlns="http://www.w3.org/2000/svg" xmlns:xlink="http://www.w3.org/1999/xlink" x="0px" y="0px"
	 width="210.438px" height="142.199px" viewBox="0 -0.469 210.438 142.199" enable-background="new 0 -0.469 210.438 142.199"
	 xml:space="preserve">
<path fill="#D7D382" d="M59.566-0.469c1.079,0,2.158,0,3.278,0c0.611,0.103,1.221,0.184,1.832,0.285
	c5.15,0.896,9.446,3.359,13.192,6.963c4.112,3.97,7.023,8.794,9.161,14.066c0.468,1.12,0.834,2.239,1.221,3.278
	c10.24-7.96,20.439-7.96,30.72,0c0.04-0.103,0.102-0.225,0.142-0.367c0.835-1.954,1.629-4.03,2.627-5.944
	c2.483-4.824,5.659-9.079,10.057-12.296c7.206-5.231,14.922-6.352,23.105-2.626c4.723,2.158,8.367,5.659,11.359,9.813
	c5.191,7.349,7.817,15.675,8.754,24.511c0.57,5.008,0.469,10.016-0.183,14.963c-0.754,5.659-2.24,11.074-4.724,16.225
	c-0.285,0.651-0.61,1.263-0.937,1.915c0.225,0.102,0.367,0.182,0.57,0.283c7.431,3.746,14.779,7.717,21.742,12.256
	c4.539,2.953,8.978,6.025,12.764,9.955c2.708,2.77,4.764,5.945,5.762,9.73c0.184,0.693,0.285,1.406,0.428,2.057
	c0,0.652,0,1.363,0,2.016c-0.041,0.102-0.103,0.184-0.103,0.225c-0.366,3.42-2.056,6.086-4.621,8.285
	c-2.3,1.953-5.008,3.176-7.857,4.07c-4.031,1.264-8.185,1.73-12.398,1.73c-6.025,0-12.071,0-18.139,0c-0.224,0-0.468,0-0.794,0
	c0.103,0.326,0.184,0.51,0.225,0.693c0.834,2.381,1.16,4.764,0.651,7.246c-0.754,3.564-2.851,6.17-5.802,8.145
	c-3.828,2.625-8.225,3.785-12.765,4.396c-0.937,0.143-1.873,0.225-2.81,0.326c-26.525,0-53.032,0-79.598,0
	c-0.143-0.041-0.224-0.102-0.367-0.102c-2.422-0.184-4.764-0.51-7.104-1.121c-3.644-0.936-7.064-2.34-9.874-4.904
	c-3.237-2.953-4.682-6.598-4.072-10.953c0.143-1.039,0.428-2.016,0.692-3.094c-0.183,0-0.367,0-0.611,0c-6.596,0-13.151,0-19.727,0
	c-2.85,0-5.66-0.184-8.469-0.693c-3.644-0.65-7.105-1.73-10.24-3.684c-2.993-1.914-5.293-4.398-6.229-7.9
	c-0.143-0.568-0.285-1.16-0.428-1.73c0-0.834,0-1.73,0-2.564c0.143-0.65,0.224-1.262,0.428-1.873
	c0.937-3.645,2.891-6.637,5.415-9.344c2.626-2.77,5.558-5.09,8.652-7.248c6.128-4.355,12.683-8.143,19.319-11.684
	c1.771-0.979,3.604-1.873,5.416-2.852c-0.102-0.143-0.143-0.285-0.224-0.428c-0.977-1.913-2.097-3.745-2.952-5.7
	c-2.993-6.738-4.397-13.843-4.622-21.131c-0.224-7.146,0.652-14.169,2.952-20.989c2.199-6.555,5.415-12.479,10.525-17.304
	c3.359-3.176,7.207-5.415,11.746-6.453C57.551-0.142,58.569-0.285,59.566-0.469z M106.186,133.933c12.438,0,24.877,0,37.315,0
	c2.81,0,5.558-0.326,8.286-1.08c2.3-0.609,4.539-1.506,6.311-3.094c1.364-1.221,1.873-2.707,1.364-4.498
	c-0.651-2.342-2.016-4.256-3.685-5.945c-2.851-2.951-6.128-5.334-9.548-7.613c-8.144-5.477-16.796-10.057-25.59-14.414
	c-0.326-0.143-0.509-0.102-0.692,0.143c-0.325,0.367-0.753,0.693-1.119,1.039c-4.54,3.889-9.731,6.127-15.757,6.025
	c-5.049-0.102-9.487-1.873-13.477-4.906c-0.753-0.611-1.262-0.611-2.097-0.184c-6.82,3.563-13.558,7.207-20.011,11.422
	c-3.888,2.523-7.614,5.189-10.892,8.508c-1.628,1.629-2.952,3.502-3.603,5.701c-0.57,1.832-0.143,3.42,1.303,4.723
	c1.262,1.119,2.708,1.873,4.255,2.422c3.318,1.223,6.779,1.73,10.28,1.73C81.309,133.974,93.747,133.933,106.186,133.933z
	 M81.533,61.358c0.142,2.057,0.224,4.153,0.468,6.229c0.611,5.661,2.097,11.075,4.723,16.143c1.832,3.563,4.112,6.738,7.248,9.223
	c2.524,2.016,5.374,3.359,8.652,3.604c3.889,0.225,7.247-1.078,10.24-3.42c3.42-2.668,5.883-6.127,7.756-10.016
	c3.359-6.881,4.723-14.21,4.764-21.803c0-3.461-0.325-6.881-0.978-10.24c-1.038-5.293-2.809-10.24-5.7-14.82
	c-2.015-3.176-4.498-5.944-7.756-7.898c-2.667-1.588-5.558-2.382-8.754-2.098c-3.033,0.285-5.7,1.548-8.082,3.421
	c-3.563,2.809-6.087,6.412-8,10.483C82.998,46.843,81.675,53.968,81.533,61.358z M39.168,42.65c0.224,2.524,0.326,5.048,0.652,7.532
	c0.692,5.415,2.239,10.606,4.865,15.431c2.097,3.889,4.723,7.288,8.51,9.772c3.46,2.301,7.247,3.135,11.319,2.098
	c4.031-1.039,7.104-3.564,9.731-6.699c0.102-0.143,0.142-0.324,0.102-0.508c-0.834-5.986-0.834-11.971,0.041-17.956
	c1.079-7.288,3.359-14.21,7.349-20.48c0.102-0.183,0.184-0.468,0.143-0.651c-0.937-4.397-2.422-8.55-4.723-12.479
	c-2.016-3.46-4.499-6.494-7.858-8.692c-2.952-1.913-6.127-2.85-9.629-2.423c-2.993,0.367-5.558,1.629-7.899,3.461
	c-3.563,2.81-6.026,6.454-7.96,10.525C40.614,28.236,39.311,35.3,39.168,42.65z M167.36,43.952c0.041,0,0.102,0,0.143,0
	c-0.224-2.667-0.366-5.375-0.753-8.041c-0.692-5.334-2.301-10.383-4.866-15.105c-2.015-3.645-4.539-6.922-8-9.304
	c-4.397-2.993-9.12-3.685-14.067-1.507c-3.135,1.405-5.619,3.645-7.716,6.271c-3.461,4.356-5.517,9.344-6.921,14.678
	c-0.041,0.224,0,0.509,0.143,0.753c3.501,5.477,5.699,11.462,6.921,17.813c0.794,3.929,1.12,7.898,1.12,11.93
	c0,3.358-0.225,6.697-0.794,10.015c-0.102,0.428-0.041,0.795,0.325,1.121c1.364,1.221,2.565,2.564,4.031,3.643
	c2.626,1.955,5.558,3.033,8.876,2.953c3.685-0.102,6.819-1.588,9.629-3.93c3.359-2.809,5.762-6.352,7.573-10.281
	C166.037,58.264,167.299,51.24,167.36,43.952z M76.484,79.822c-0.977,0.693-1.914,1.445-2.891,2.098
	c-5.558,3.643-11.604,4.824-18.098,3.135c-4.214-1.119-7.756-3.359-10.851-6.352c-0.326-0.285-0.509-0.285-0.896-0.102
	c-0.834,0.469-1.73,0.895-2.565,1.303c-6.82,3.563-13.599,7.287-20.012,11.604c-3.318,2.24-6.494,4.58-9.344,7.43
	c-1.69,1.691-3.095,3.604-3.746,5.945c-0.509,1.689-0.183,3.236,1.161,4.396c0.936,0.795,2.015,1.549,3.135,2.098
	c3.237,1.547,6.698,2.199,10.24,2.24c9.344,0.102,18.668,0.039,28.012,0.039c0.184,0,0.428-0.143,0.57-0.285
	c2.565-2.564,5.415-4.824,8.408-6.881c6.413-4.498,13.191-8.365,20.072-12.01c1.079-0.57,2.199-1.119,3.278-1.73
	C80.087,88.801,78.031,84.443,76.484,79.822z M125.403,90.754c0.285,0.143,0.468,0.225,0.651,0.326
	c7.613,3.787,15.105,7.857,22.312,12.439c4.215,2.707,8.327,5.617,11.971,9.018c0.366,0.326,0.692,0.51,1.222,0.51
	c7.96,0,15.899,0,23.859,0c2.707,0,5.476-0.225,8.143-0.896c2.483-0.611,4.865-1.404,6.922-3.033c1.771-1.445,2.3-3.033,1.588-5.232
	c-0.611-1.873-1.689-3.5-2.993-4.967c-2.626-2.809-5.659-5.15-8.794-7.287c-5.843-4.072-12.072-7.574-18.343-10.893
	c-2.382-1.262-4.824-2.482-7.206-3.746c-0.224,0.285-0.428,0.469-0.611,0.693c-1.913,2.158-4.03,4.111-6.494,5.658
	c-4.295,2.709-8.937,3.971-14.026,3.563c-4.682-0.426-8.753-2.299-12.397-5.15c-0.325-0.223-0.651-0.508-0.978-0.793
	C128.864,84.443,127.378,87.72,125.403,90.754z"/>
</svg>
