<?xml version="1.0" encoding="utf-8"?>
<!-- Generator: Adobe Illustrator 18.1.1, SVG Export Plug-In . SVG Version: 6.00 Build 0)  -->
<svg version="1.1" id="Capa_1" xmlns="http://www.w3.org/2000/svg" xmlns:xlink="http://www.w3.org/1999/xlink" x="0px" y="0px"
	 viewBox="-621 410.4 32 32" enable-background="new -621 410.4 32 32" xml:space="preserve">
<path fill="#FFFFFF" d="M-589.6,421l-10-10c-0.5-0.5-1.2-0.7-1.9-0.5c-0.4,0.1-0.7,0.3-0.9,0.5c-0.2,0.2-0.4,0.5-0.5,0.8
	c-0.5,1.5-1.2,2.7-2.4,3.9c-1.5,1.5-3.6,2.7-5.7,4c-2.3,1.3-4.6,2.7-6.5,4.6c-1.6,1.6-2.7,3.4-3.4,5.6c-0.2,0.7,0,1.5,0.5,2l10,10
	c0.5,0.5,1.2,0.7,1.9,0.5c0.4-0.1,0.7-0.3,0.9-0.5c0.2-0.2,0.4-0.5,0.5-0.8c0.5-1.5,1.2-2.7,2.4-3.9c1.5-1.5,3.6-2.7,5.7-4
	c2.3-1.3,4.6-2.7,6.5-4.6c1.6-1.6,2.7-3.4,3.4-5.6C-588.9,422.3-589.1,421.5-589.6,421z M-609,440.4c-3.3-3.3-6.7-6.7-10-10
	c2.8-9.2,15.2-8.8,18-18c3.3,3.3,6.7,6.7,10,10C-593.8,431.6-606.2,431.2-609,440.4z M-601.4,425.3c-0.3-0.3-0.7-0.5-1-0.6
	c-0.3-0.1-0.7-0.1-1-0.1c-0.3,0-0.7,0.1-1,0.2c-0.3,0.1-0.7,0.3-1,0.4c-0.5-0.6-1.1-1.2-1.6-1.8c0.2-0.2,0.5-0.3,0.7-0.3
	c0.2,0,0.4,0,0.7,0.1c0.2,0.1,0.4,0.1,0.6,0.1c0.2,0,0.3,0,0.5-0.1c0.1-0.1,0.2-0.3,0.2-0.5c0-0.2-0.1-0.4-0.2-0.6
	c-0.2-0.2-0.5-0.4-0.8-0.4c-0.3-0.1-0.6,0-0.9,0c-0.3,0.1-0.6,0.2-0.9,0.4c-0.3,0.2-0.5,0.3-0.7,0.5c-0.1-0.1-0.1-0.1-0.2-0.2
	c-0.1-0.1-0.2-0.1-0.3-0.1c-0.1,0-0.2,0-0.3,0.1c-0.1,0.1-0.1,0.2-0.1,0.3c0,0.1,0.1,0.2,0.1,0.3c0.1,0.1,0.1,0.1,0.2,0.2
	c-0.3,0.3-0.5,0.6-0.6,1c-0.2,0.4-0.3,0.7-0.3,1.1c0,0.4,0,0.7,0.1,1c0.1,0.3,0.3,0.6,0.6,0.8c0.5,0.4,1,0.6,1.7,0.5
	c0.6,0,1.3-0.2,2.1-0.6c0.6,0.7,1.2,1.4,1.8,2c-0.3,0.2-0.5,0.3-0.7,0.4c-0.2,0-0.4,0-0.5,0c-0.2,0-0.3-0.1-0.4-0.2
	c-0.1-0.1-0.3-0.2-0.4-0.2c-0.1-0.1-0.3-0.1-0.4-0.1c-0.1,0-0.3,0.1-0.4,0.2c-0.2,0.1-0.2,0.3-0.2,0.5s0.1,0.4,0.3,0.6
	c0.2,0.2,0.4,0.4,0.7,0.5c0.3,0.1,0.6,0.2,0.9,0.2c0.3,0,0.7,0,1.1-0.2c0.4-0.1,0.7-0.4,1.1-0.7c0.2,0.2,0.4,0.3,0.5,0.5
	c0.1,0.1,0.2,0.1,0.3,0.1c0.1,0,0.2-0.1,0.3-0.1c0.1-0.1,0.1-0.2,0.1-0.3c0-0.1-0.1-0.2-0.1-0.2c-0.2-0.1-0.4-0.3-0.5-0.4
	c0.3-0.4,0.5-0.8,0.7-1.1c0.2-0.4,0.3-0.8,0.3-1.1c0-0.3,0-0.7-0.1-0.9C-601,425.8-601.2,425.5-601.4,425.3z M-607,426
	c-0.3,0-0.5-0.1-0.7-0.3c-0.1-0.1-0.2-0.2-0.2-0.3c0-0.1-0.1-0.3,0-0.4c0-0.1,0.1-0.3,0.1-0.5c0.1-0.2,0.2-0.3,0.3-0.5
	c0.5,0.5,1,1.1,1.5,1.6C-606.4,425.8-606.7,426-607,426z M-602.3,428c-0.1,0.2-0.2,0.3-0.3,0.4c-0.6-0.6-1.1-1.2-1.7-1.8
	c0.1-0.1,0.3-0.1,0.5-0.2c0.2-0.1,0.3-0.1,0.5-0.1c0.2,0,0.3,0,0.5,0c0.2,0,0.3,0.1,0.5,0.3c0.1,0.1,0.2,0.3,0.3,0.4
	c0,0.2,0,0.3,0,0.5C-602.2,427.6-602.2,427.8-602.3,428z M-606.3,432.6c0.2-0.2,0.5-0.2,0.7,0c0.2,0.2,0.2,0.5,0,0.7c0,0,0,0-0.1,0
	l0,0c-0.6,0.5-1.2,0.9-1.7,1.5c-0.5,0.5-1,1-1.4,1.6l-0.6,0.9c0,0,0,0.1-0.1,0.1c-0.2,0.2-0.5,0.2-0.7,0c-0.2-0.2-0.2-0.4-0.1-0.6
	l0,0l0.7-0.9c0.4-0.6,0.9-1.2,1.5-1.7C-607.5,433.6-606.9,433-606.3,432.6C-606.3,432.6-606.3,432.6-606.3,432.6z M-602.6,418.1
	c0.5-0.5,1-1,1.4-1.6l0.7-0.9c0,0,0.1-0.1,0.1-0.1c0.2-0.2,0.5-0.2,0.7,0c0.2,0.2,0.2,0.5,0,0.7l0,0l-0.7,0.9
	c-0.4,0.6-0.9,1.2-1.5,1.7c-0.6,0.6-1.2,1.1-1.8,1.6l0,0c-0.2,0.2-0.5,0.2-0.7,0c-0.2-0.2-0.2-0.5,0-0.7c0,0,0.1-0.1,0.1-0.1
	C-603.7,419.1-603.1,418.6-602.6,418.1z"/>
</svg>
