<?xml version="1.0" encoding="utf-8"?>
<!-- Generator: Adobe Illustrator 14.0.0, SVG Export Plug-In . SVG Version: 6.00 Build 43363)  -->
<!DOCTYPE svg PUBLIC "-//W3C//DTD SVG 1.1//EN" "http://www.w3.org/Graphics/SVG/1.1/DTD/svg11.dtd">
<svg version="1.1" id="Capa_1" xmlns="http://www.w3.org/2000/svg" xmlns:xlink="http://www.w3.org/1999/xlink" x="0px" y="0px"
	 width="129.046px" height="129px" viewBox="0 0 129.046 129" enable-background="new 0 0 129.046 129" xml:space="preserve">
<g>
	<polygon fill="#FFFFFF" points="51.585,64 75.022,64.093 77.74,51.813 51.585,51.833 	"/>
	<path fill="#FFFFFF" d="M64.017,0.473C28.66,0.473,0,29.134,0,64.5c0,35.35,28.66,64.028,64.017,64.028
		c35.367,0,64.029-28.679,64.029-64.028C128.046,29.134,99.384,0.473,64.017,0.473z M53.959,86.082c-1.952,0-3.531-1.58-3.531-3.531
		c0-1.952,1.582-3.53,3.531-3.53c1.952,0,3.531,1.578,3.531,3.53C57.49,84.502,55.911,86.082,53.959,86.082z M72.782,86.082
		c-1.949,0-3.528-1.58-3.528-3.531c0-1.952,1.579-3.53,3.528-3.53c1.952,0,3.531,1.578,3.531,3.53
		C76.314,84.502,74.733,86.082,72.782,86.082z M80.913,52.806l-2.778,11.727c-0.378,1.591-1.801,2.717-3.436,2.717H51.601
		l-0.016,5.938l24.729,0.063c1.299,0,2.352,0.451,2.352,1.749c0,1.299-1.053,1.668-2.352,1.668H51.605
		c-1.95,0-3.529-1.579-3.529-3.531l-0.023-21.197l-2.312-0.016c-1.296,0-2.371-0.451-2.371-1.75s1.053-1.755,2.351-1.755h31.766
		C79.787,48.417,81.472,50.576,80.913,52.806z M107.917,38.103H94V52.02h-2.083l0.083-14H77.943v-1.917h13.975V21.936H94v14.167
		h13.917V38.103z"/>
</g>
</svg>
