<?xml version="1.0" encoding="utf-8"?>
<!-- Generator: Adobe Illustrator 14.0.0, SVG Export Plug-In . SVG Version: 6.00 Build 43363)  -->
<!DOCTYPE svg PUBLIC "-//W3C//DTD SVG 1.1//EN" "http://www.w3.org/Graphics/SVG/1.1/DTD/svg11.dtd">
<svg version="1.1" id="Capa_1" xmlns="http://www.w3.org/2000/svg" xmlns:xlink="http://www.w3.org/1999/xlink" x="0px" y="0px"
	 width="129.046px" height="129px" viewBox="0 0 129.046 129" enable-background="new 0 0 129.046 129" xml:space="preserve">
<g>
	<path fill-rule="evenodd" clip-rule="evenodd" fill="#FFFFFF" d="M65.018,0C29.66,0,1,28.661,1,64.027
		c0,35.35,28.66,64.028,64.018,64.028c35.367,0,64.028-28.679,64.028-64.028C129.046,28.661,100.385,0,65.018,0z M85,91.187
		c0,2.316-2.332,3.708-3.833,3.708c-1.187,0-25.528,0-35.668,0c-2.25,0-4.375-1.875-4.375-3.625c0-11.03,0-43.551,0-45.417
		c0-2.25,1.446-3.958,3.792-3.958c9.75,0,35.038,0,36.583,0c1.917,0,3.5,1.957,3.5,3.625C85,46.902,85,79.94,85,91.187z
		 M107.917,38.103H94V52.02h-2.083l0.083-14H77.943v-1.917h13.974V21.936H94v14.167h13.917V38.103z"/>
	<path fill-rule="evenodd" clip-rule="evenodd" fill="#FFFFFF" d="M79.152,44.425c-1.348,0-23.405,0-31.909,0
		c-2.045,0-3.306,1.534-3.306,3.555c0,1.676,0,30.881,0,40.787c0,1.571,1.853,3.256,3.815,3.256c8.844,0,30.075,0,31.11,0
		c1.309,0,3.342-1.25,3.342-3.331c0-10.099,0-39.769,0-41.011C82.205,46.183,80.824,44.425,79.152,44.425z M77.917,60.853
		l-18.5,17.417c0,0-8.583-7.667-11.25-10.067c0.083-3.067,2.5-2.516,2.5-2.516l8.75,8.333c0,0,14.417-14.25,16.417-15.885
		C78.333,58.667,77.917,60.853,77.917,60.853z"/>
</g>
</svg>
