<?xml version="1.0" encoding="utf-8"?>
<!-- Generator: Adobe Illustrator 14.0.0, SVG Export Plug-In . SVG Version: 6.00 Build 43363)  -->
<!DOCTYPE svg PUBLIC "-//W3C//DTD SVG 1.1//EN" "http://www.w3.org/Graphics/SVG/1.1/DTD/svg11.dtd">
<svg version="1.1" id="Capa_1" xmlns="http://www.w3.org/2000/svg" xmlns:xlink="http://www.w3.org/1999/xlink" x="0px" y="0px"
	 width="112.75px" height="58.055px" viewBox="0 0 112.75 58.055" enable-background="new 0 0 112.75 58.055" xml:space="preserve">
<path fill="#FFFFFF" d="M18,35.946v-7.25h94.75v15.25c0,0-0.75,2.75-3.5,2.75s-15.5,0-15.5,0s-3-14.75-16-14.75
	c-10,0.25-13.5,7-13.5,7s-4.25-6.5-13.75-6.75c-9.25,0.375-15,9.25-14.5,14.5c-6.25,0-15,0-15,0s-3-0.75-3-4.25c-5.25,0-18,0-18,0
	v-6.25L18,35.946z"/>
<polygon fill="#FFFFFF" points="3,34.946 4.75,34.946 4.75,33.321 6.938,33.321 6.938,30.384 1,30.384 1,33.384 2.938,33.384 "/>
<path fill-rule="evenodd" clip-rule="evenodd" fill="#FFFFFF" d="M51.106,35.396c-6.256,0-11.328,5.071-11.328,11.33
	c0,6.254,5.072,11.329,11.328,11.329c6.258,0,11.33-5.075,11.33-11.329C62.436,40.467,57.364,35.396,51.106,35.396z M51.106,50.977
	c-2.348,0-4.252-1.904-4.252-4.251c0-2.348,1.904-4.252,4.252-4.252c2.349,0,4.252,1.904,4.252,4.252
	C55.359,49.072,53.455,50.977,51.106,50.977z"/>
<path fill-rule="evenodd" clip-rule="evenodd" fill="#FFFFFF" d="M77.106,35.396c-6.256,0-11.328,5.071-11.328,11.33
	c0,6.254,5.072,11.329,11.328,11.329c6.258,0,11.33-5.075,11.33-11.329C88.436,40.467,83.364,35.396,77.106,35.396z M77.106,50.977
	c-2.348,0-4.252-1.904-4.252-4.251c0-2.348,1.904-4.252,4.252-4.252c2.349,0,4.252,1.904,4.252,4.252
	C81.359,49.072,79.455,50.977,77.106,50.977z"/>
<path fill-rule="evenodd" clip-rule="evenodd" fill="#FFFFFF" d="M18.5,0v25.696h94.25V0H18.5z M38.717,21.69h-7.118V4.047h7.118
	V21.69z M53.523,21.69h-7.119V4.047h7.119V21.69z M69.469,21.69h-7.119V4.047h7.119V21.69z M84.275,21.69h-7.119V4.047h7.119V21.69z
	 M100.221,21.69h-7.118V4.047h7.118V21.69z"/>
</svg>
