<?xml version="1.0" encoding="utf-8"?>
<!-- Generator: Adobe Illustrator 14.0.0, SVG Export Plug-In . SVG Version: 6.00 Build 43363)  -->
<!DOCTYPE svg PUBLIC "-//W3C//DTD SVG 1.1//EN" "http://www.w3.org/Graphics/SVG/1.1/DTD/svg11.dtd">
<svg version="1.1" id="Capa_1" xmlns="http://www.w3.org/2000/svg" xmlns:xlink="http://www.w3.org/1999/xlink" x="0px" y="0px"
	 width="148.272px" height="141.73px" viewBox="0 0 148.272 141.73" enable-background="new 0 0 148.272 141.73"
	 xml:space="preserve">
<g id="Forma_2">
	<g>
		<path fill-rule="evenodd" clip-rule="evenodd" fill="#9699A0" d="M100.59,84.652c5.965-8.768,9.604-20.436,9.604-33.245
			c0-27.236-16.451-49.313-36.749-49.313c-20.296,0-36.749,22.078-36.749,49.313c0,12.959,3.725,24.752,9.818,33.552
			C25.741,97.729-6.991,111.493,1.325,127.86c4.223,12.829,34.659,14.476,36.333,14.476c4.306,0,63.839,0.253,69.875-0.108
			c19.3-0.448,38.3-5.077,40.688-14.586C149.658,108.256,119.769,95.611,100.59,84.652z M72.818,10.26
			c14.398,0,26.069,18.563,26.069,41.461c0,22.897-11.671,41.46-26.069,41.46c-14.398,0-26.07-18.563-26.07-41.46
			C46.748,28.824,58.419,10.26,72.818,10.26z M137.835,124.172c-0.837,8.378-29.106,8.587-29.106,8.587H43.607
			c0,0-32.038,0.628-32.038-9.632c-1.047-7.749,36.226-27.641,41.461-30.364c3.141,7.121,12.982,9.006,19.056,9.006
			c0,0,16.122,1.465,22.615-10.263C113.335,103.233,138.674,115.797,137.835,124.172z"/>
	</g>
</g>
</svg>
