<?xml version="1.0" encoding="utf-8"?>
<!-- Generator: Adobe Illustrator 18.1.1, SVG Export Plug-In . SVG Version: 6.00 Build 0)  -->
<svg version="1.1" id="Capa_1" xmlns="http://www.w3.org/2000/svg" xmlns:xlink="http://www.w3.org/1999/xlink" x="0px" y="0px"
	 viewBox="0 65.4 858 785" enable-background="new 0 65.4 858 785" xml:space="preserve">
<path fill="#FFFFFF" d="M642.8,274.4c-25.5-10.2-32.7-16.5-32.7-27.6c0-9,6.9-19.2,25.8-19.2c16.8,0,29.7,6.6,30,6.6
	c1.5,0.6,3,1.2,4.5,1.2c3.6,0,6.9-2.1,8.4-5.7l4.5-11.7c1.5-4.2-0.9-8.1-3.9-9.3c-10.5-4.5-30.6-8.1-30.9-8.1
	c-0.3,0-1.5-0.3-1.5-1.5v-17.1c0-5.1-4.2-9.3-9.6-9.3H629c-5.4,0-9.6,4.2-9.6,9.3v18c0,1.5-1.5,2.1-2.1,2.1
	c-25.5,6-41.6,24.9-41.6,48.2c0,29.4,24.3,42.8,50.6,52.7c21,8.4,29.7,16.5,29.7,28.8c0,13.2-12,22.8-29.4,22.8
	c-15,0-35.1-9.3-35.1-9.6c-1.2-0.6-2.7-0.9-4.2-0.9c-3.9,0-7.2,2.4-8.4,6l-4.5,12c-1.5,4.5,0.9,8.1,3.9,9.6
	c12.3,6.3,36.3,10.2,37.1,10.5c0.3,0,1.8,0.6,1.8,1.8v18c0,5.1,4.2,9.3,9.6,9.3h8.7c5.4,0,9.6-4.2,9.6-9.3v-18.9
	c0-1.8,1.2-1.8,1.5-2.1c27.3-6,44-26.1,44-50.9C690.4,304.1,676,287.6,642.8,274.4L642.8,274.4z"/>
<path fill="#FFFFFF" d="M632,66.8c-124.3,0-225,100.7-225,225c0,124,100.7,225,225,225c124,0,225-100.7,225-225
	C856.7,167.5,756,66.8,632,66.8L632,66.8z M632,464.4c-95.3,0-172.9-77.3-172.9-172.9c0-95.3,77.3-172.9,172.9-172.9
	c95.3,0,172.9,77.3,172.9,172.9C804.6,387.1,727.3,464.4,632,464.4L632,464.4z"/>
<path fill="#FFFFFF" d="M811.1,625.5c-47.9,26.4-113.5,50.9-179.2,61.1c-58.4,9.3-168.1-12.9-168.1-38.9c0-9.9,96.2,24.3,154.6,8.7
	c44.6-12,38.3-53.6,14.1-59.3c-24.3-5.4-165.7-57.2-226.2-59c-28.5-0.9-98.9,9.9-132.7,15.6c-11.7,1.8-18.9,1.8-19.8,12.9
	c-3.3,51.8-10.2,157.9-13.8,213c0,1.2,1.5,16.8,14.4,5.7c14.1-12,34.2-25.5,52.4-21.3c29.1,6.6,278.9,52.4,313.7,44.3
	c49.4-11.4,189-94.4,216-120.1C878.2,648.3,845.9,606.4,811.1,625.5L811.1,625.5z"/>
<path fill="#FFFFFF" d="M184.7,551.5L53.8,545c-10.2-0.6-20.4,7.2-23.1,17.1L7,778.3c-2.4,9.9,3.6,18.3,13.8,18.6h145.3
	c10.2,0.3,19.2-7.5,19.8-17.7l15.9-208.5C202.7,560.5,194.9,552.1,184.7,551.5L184.7,551.5z M107.7,768.1
	c-20.1,0-36.3-16.2-36.3-36.3c0-20.1,16.2-36.3,36.3-36.3s36.3,16.2,36.3,36.3C144,752,127.8,768.1,107.7,768.1L107.7,768.1z"/>
</svg>
