<?xml version="1.0" encoding="utf-8"?>
<!-- Generator: Adobe Illustrator 18.1.1, SVG Export Plug-In . SVG Version: 6.00 Build 0)  -->
<svg version="1.1" id="Capa_1" xmlns="http://www.w3.org/2000/svg" xmlns:xlink="http://www.w3.org/1999/xlink" x="0px" y="0px"
	 viewBox="0 0 852.8 850.4" enable-background="new 0 0 852.8 850.4" xml:space="preserve">
<path fill="#FFFFFF" d="M834.4,297.6l-79.7-106.3c-2.7-5.3-8-8-10.6-10.6V53.1c0-29.2-23.9-53.1-53.1-53.1H159.4
	c-29.2,0-53.1,23.9-53.1,53.1v127.6c-2.7,2.7-8,8-10.6,10.6L15.9,297.6C5.3,310.9,0,329.5,0,345.5V372c0,45.2,34.5,79.7,79.7,79.7
	l0,0v345.5c0,29.2,23.9,53.1,53.1,53.1h584.6c29.2,0,53.1-23.9,53.1-53.1V451.8c45.2,0,79.7-34.5,79.7-79.7v-26.6
	C850.4,329.5,845.1,310.9,834.4,297.6z M690.9,53.1v106.3H159.4V53.1H690.9z M271.1,398.6H159.4l106.3-186h58.5L271.1,398.6z
	 M350.8,212.6h61.1v186H297.6L350.8,212.6z M438.5,212.6h61.1l53.1,186H438.5V212.6z M526.2,212.6h58.5l106.3,186H579.3L526.2,212.6
	z M53.1,372v-26.6c0-5.3,2.7-10.6,5.3-15.9l79.7-106.3c5.3-8,13.3-10.6,21.3-10.6h77.1l-106.3,186H79.7
	C63.8,398.6,53.1,388,53.1,372z M531.5,797.2H332.2V531.5h199.3V797.2z M717.5,797.2H558.1V531.5c0-15.9-10.6-26.6-26.6-26.6H332.2
	c-15.9,0-26.6,10.6-26.6,26.6v265.7H132.9V451.8h584.6V797.2z M797.2,372c0,15.9-10.6,26.6-26.6,26.6h-50.5l-106.3-186h77.1
	c8,0,15.9,2.7,21.3,10.6l79.7,106.3c2.7,5.3,5.3,10.6,5.3,15.9V372z"/>
</svg>
