<?xml version="1.0" encoding="utf-8"?>
<!-- Generator: Adobe Illustrator 18.1.1, SVG Export Plug-In . SVG Version: 6.00 Build 0)  -->
<svg version="1.1" id="Capa_1" xmlns="http://www.w3.org/2000/svg" xmlns:xlink="http://www.w3.org/1999/xlink" x="0px" y="0px"
	 viewBox="0 256.2 591.8 594.2" enable-background="new 0 256.2 591.8 594.2" xml:space="preserve">
<path fill="#FFFFFF" d="M274.7,258.4c5.3,0,10.7,0,16,0c2.7,0.4,5.6,0.9,8.2,1.3c25.8,4.2,47,17.2,65.1,35.2
	c13.8,13.8,24.7,29.6,33.4,47.2c18.5,36.8,26.5,76,27.2,116.8c0.4,20.5-1.3,40.8-5.1,60.8c-5.6,29.4-15.6,57-31.4,82.7
	c-0.4,0.7-0.7,1.1-0.9,1.8c7.1,3.8,14.3,7.4,21.4,10.9c32.8,16.9,64.8,34.8,95.6,55c19.8,13.1,39.2,27.2,55.9,44.6
	c12.9,13.6,22.7,28.7,26.7,47.2c0.4,2,0.9,4,1.3,6.2c0,4.2,0,8.5,0,12.9c-0.2,0.4-0.4,0.9-0.4,1.6c-1.8,5.6-2.9,11.6-5.3,16.9
	c-7.4,15.6-20.3,25.4-35.2,32.8c-17.8,8.7-36.8,12.9-56.4,14.7c-3.6,0.2-7.1,0.7-10.5,1.1c-123.2,0-246.4,0-369.5,0
	c-0.7-0.2-1.1-0.4-1.8-0.4c-9.4-1.1-18.5-1.8-27.9-3.3c-17.6-3.1-34.3-8.7-49.2-18.9C19.2,816.6,9.3,805,5.3,789.6
	c-0.7-2.9-1.3-5.8-1.8-8.5c0-4,0-7.8,0-11.8c0.2-0.2,0.4-0.4,0.4-0.7c2-16.5,9.4-30.5,19.2-43.5c10.5-13.6,23.2-24.5,36.8-34.8
	c30.3-23.2,63.3-42.3,96.7-60.6c9.6-5.1,19.2-10.3,28.7-15.4c-0.4-0.7-0.9-1.3-1.3-2c-8.2-11.6-15.2-23.8-20.7-37
	c-16.5-38.3-23-78.2-21.8-119.9c0.7-28.5,5.3-56.4,14.7-83.3c10.5-30.1,25.4-57.3,48.8-79.6c16.7-16,35.9-27.2,58.8-31.6
	C266.9,259.7,270.7,259,274.7,258.4z M362.8,634.3c-0.9,0.9-1.6,1.6-2.5,2.2c-10,9.4-20.9,17.2-33.2,23c-19.2,8.9-39.2,12-60.2,8.9
	c-19.8-3.1-37.2-11.6-52.8-23.8c-1.8-1.3-2.9-1.6-4.9-0.4c-34.1,17.4-67.7,35.9-100.1,56.8c-18,11.8-35.7,24.3-50.6,39.9
	c-7.6,7.8-13.6,16.5-16.7,27c-2.7,8.9-0.4,16.5,6.7,22.3c4,3.3,8.5,6.2,13.1,8.5c17.4,8.2,36.1,11.1,55.3,11.1
	c118.1,0.2,236.4,0,354.5,0c13.6,0,26.7-1.6,39.9-4.9c10.9-2.9,21.4-6.7,30.3-14c8.2-6.9,10.5-14.7,6.9-24.7
	c-3.6-10.5-10-18.9-17.6-26.7c-13.1-13.1-28.1-24.3-43.7-34.8c-29.2-19.6-59.9-36.8-91.1-53C385.3,645.7,373.9,640.1,362.8,634.3z
	 M387,464c0-13.8-1.1-27.4-3.1-41c-4-25-11.4-49-24.1-71.1c-9.4-16.7-20.9-31.4-37-42.3c-17.4-12-36.3-16.5-57-10.9
	c-14.5,4-26.7,12-37.2,22.7c-18.5,18.7-30.3,41.4-38.3,66.2c-11.4,35.2-14.3,71.3-9.8,108.1c3.1,25.8,9.8,50.4,21.6,73.5
	c9.4,18.3,21.2,34.8,37.7,47c12.9,9.8,27.4,15.6,43.9,15.4c15.8-0.2,29.6-6,41.9-15.2c18-13.4,30.5-31.4,39.9-51.3
	C380.6,533.1,386.8,499.3,387,464z"/>
</svg>
