<?xml version="1.0" encoding="utf-8"?>
<!-- Generator: Adobe Illustrator 18.1.1, SVG Export Plug-In . SVG Version: 6.00 Build 0)  -->
<svg version="1.1" id="Capa_1" xmlns="http://www.w3.org/2000/svg" xmlns:xlink="http://www.w3.org/1999/xlink" x="0px" y="0px"
	 viewBox="112 125.4 852 630" enable-background="new 112 125.4 852 630" xml:space="preserve">
<g>
	<g id="Layer_1_118_">
		<g>
			<path fill="#FFFFFF" d="M842.9,124.9H240.7c-68.6,0-124.1,55.7-124.1,124.1v381.7c0,68.6,55.7,124.1,124.1,124.1h602.2
				c68.6,0,124.1-55.7,124.1-124.1V249.2C967,180.6,911.5,124.9,842.9,124.9z M892.9,628.9c0,27.8-22.2,50-50,50H240.7
				c-27.8,0-50-22.2-50-50V249.2c0-27.8,22.2-50,50-50h602.2c27.8,0,50,22.2,50,50V628.9L892.9,628.9z"/>
			<path fill="#FFFFFF" d="M420.5,397.4c16.7-12.9,27.8-33.3,27.8-57.4c0-38.9-31.5-72.2-72.2-72.2c-38.9,0-72.2,31.5-72.2,72.2
				c0,22.2,11,42.6,27.8,55.7c-35.2,16.7-59.3,51.9-59.3,92.7v92.7c0,14.8,12.9,27.8,27.8,27.8h150.1c14.8,0,24.1-12.9,24.1-27.8
				v-92.7C477.9,449.3,455.6,414,420.5,397.4z"/>
			<path fill="#FFFFFF" d="M539,354.7h153.7c20.3,0,38.9-16.7,38.9-38.9c0-22.2-16.7-38.9-38.9-38.9H539
				c-20.3,0-38.9,16.7-38.9,38.9C500.1,338.1,516.8,354.7,539,354.7z"/>
			<path fill="#FFFFFF" d="M768.8,401.1H539c-20.3,0-38.9,16.7-38.9,38.9c0,22.2,16.7,38.9,38.9,38.9h231.6
				c20.3,0,38.9-16.7,38.9-38.9C809.6,417.8,791,401.1,768.8,401.1z"/>
			<path fill="#FFFFFF" d="M768.8,523.4H539c-22.2,0-38.9,18.6-38.9,38.9s16.7,38.9,38.9,38.9h231.6c20.3,0,38.9-16.7,38.9-38.9
				C809.6,540,791,523.4,768.8,523.4z"/>
		</g>
	</g>
</g>
</svg>
